PERFORMER "Ария"
TITLE "Химера"
REM GENRE Heavy Metal
REM DATE 2001
FILE "Ария - Химера, 2001 (LP1).flac" WAVE
  TRACK 01 AUDIO
    TITLE "Химера"
    INDEX 01 00:00:00
  TRACK 02 AUDIO
    TITLE "Небо Тебя Найдёт"
    INDEX 01 04:38:00
  TRACK 03 AUDIO
    TITLE "Я Не Сошёл С Ума"
    INDEX 01 10:07:50
  TRACK 04 AUDIO
    TITLE "Вампир"
    INDEX 01 16:31:50
  TRACK 05 AUDIO
    TITLE "Горящая Стрела"
    INDEX 01 22:00:00
  TRACK 06 AUDIO
    TITLE "Штиль"
    INDEX 01 26:10:00
  TRACK 07 AUDIO
    TITLE "Путь В Никуда"
    INDEX 01 31:43:50
  TRACK 08 AUDIO
    TITLE "Ворон"
    INDEX 01 37:10:50
FILE "Ария - Химера, 2001 (LP2).flac" WAVE
  TRACK 09 AUDIO
    TITLE "Осколок Льда"
    INDEX 01 00:00:00
  TRACK 10 AUDIO
    TITLE "Тебе Дадут Знак"
    INDEX 01 05:24:00
  TRACK 11 AUDIO
    TITLE "Небо тебя найдет (Версия 2002г.)"
    INDEX 01 14:11:00
  TRACK 12 AUDIO
    TITLE "Потерянный рай"
    INDEX 01 20:15:00
  TRACK 13 AUDIO
    TITLE "Кто ты?"
    INDEX 01 26:04:00
  TRACK 14 AUDIO
    TITLE "Штиль (с Удо Диркшнайдером)"
    INDEX 01 30:49:00
  TRACK 15 AUDIO
    TITLE "Потерянный рай (Симфо-версия)"
    INDEX 01 35:57:50